<?xml version="1.0" standalone="no"?>
<!DOCTYPE svg PUBLIC "-//W3C//DTD SVG 20010904//EN"
 "http://www.w3.org/TR/2001/REC-SVG-20010904/DTD/svg10.dtd">
<svg version="1.0" xmlns="http://www.w3.org/2000/svg"
 width="225.000000pt" height="225.000000pt" viewBox="0 0 225.000000 225.000000"
 preserveAspectRatio="xMidYMid meet">

<g transform="translate(0.000000,225.000000) scale(0.100000,-0.100000)"
fill="#000000" stroke="none">
<path d="M913 1733 l-423 -3 0 -185 0 -185 425 0 425 0 0 -30 0 -30 -195 0
-195 0 0 -175 0 -175 405 0 405 0 0 395 0 395 -212 -2 c-117 -2 -403 -4 -635
-5z"/>
<path d="M490 904 l0 -397 83 6 c45 4 133 7 195 7 l112 0 0 390 0 390 -195 0
-195 0 0 -396z"/>
<path d="M950 698 l0 -191 143 6 c78 4 260 7 405 7 l262 0 0 185 0 185 -405 0
-405 0 0 -192z"/>
</g>
</svg>
