<?xml version="1.0" standalone="no"?>
<!DOCTYPE svg PUBLIC "-//W3C//DTD SVG 20010904//EN"
 "http://www.w3.org/TR/2001/REC-SVG-20010904/DTD/svg10.dtd">
<svg version="1.0" xmlns="http://www.w3.org/2000/svg"
 width="250.000000pt" height="120.000000pt" viewBox="0 0 250.000000 120.000000"
 preserveAspectRatio="xMidYMid meet">

<g transform="translate(0.000000,120.000000) scale(0.100000,-0.100000)"
fill="#000000" stroke="none">
<path d="M0 600 l0 -600 605 0 605 0 0 600 0 600 -605 0 -605 0 0 -600z m278
-289 c3 -101 11 -121 48 -121 44 0 54 23 54 126 l0 94 30 0 30 0 0 -104 c0
-97 -2 -107 -25 -134 -32 -38 -88 -50 -138 -28 -53 22 -67 58 -67 171 l0 96
33 -3 32 -3 3 -94z m323 18 l64 -82 3 82 3 81 29 0 30 0 0 -135 0 -135 -28 0
c-22 0 -38 14 -87 77 l-60 76 -3 -76 -3 -77 -29 0 -30 0 0 135 0 135 24 0 c17
0 39 -21 87 -81z m324 66 c56 -23 69 -90 25 -130 -18 -16 -17 -19 16 -71 l35
-54 -40 0 c-36 0 -41 4 -63 42 -13 24 -31 44 -41 46 -14 3 -17 -4 -17 -42 0
-44 -1 -46 -30 -46 l-30 0 0 135 0 135 55 0 c31 0 71 -7 90 -15z"/>
<path d="M847 353 c-4 -3 -7 -21 -7 -40 0 -28 4 -33 23 -33 45 0 65 50 28 70
-23 12 -35 13 -44 3z"/>
<path d="M1390 690 c0 -48 4 -61 19 -70 55 -29 91 3 91 78 0 67 -18 68 -22 1
-3 -55 -21 -78 -52 -66 -12 5 -16 20 -16 62 0 30 -4 55 -10 55 -6 0 -10 -27
-10 -60z"/>
<path d="M1640 740 c0 -5 5 -10 10 -10 6 0 10 5 10 10 0 6 -4 10 -10 10 -5 0
-10 -4 -10 -10z"/>
<path d="M2060 740 c0 -5 5 -10 10 -10 6 0 10 5 10 10 0 6 -4 10 -10 10 -5 0
-10 -4 -10 -10z"/>
<path d="M2170 726 c0 -18 -4 -23 -18 -19 -26 6 -44 -20 -40 -59 3 -31 5 -33
41 -33 l37 -1 0 68 c0 39 -4 68 -10 68 -5 0 -10 -11 -10 -24z m-2 -64 c3 -27
0 -32 -17 -32 -16 0 -21 6 -21 28 0 53 33 56 38 4z"/>
<path d="M2390 730 c0 -14 -7 -20 -23 -20 -30 0 -47 -18 -47 -51 0 -33 16 -46
58 -46 l32 0 0 69 c0 39 -4 68 -10 68 -5 0 -10 -9 -10 -20z m-2 -69 c-4 -36
-48 -44 -48 -9 0 29 17 48 37 41 8 -3 13 -16 11 -32z"/>
<path d="M1530 658 c0 -26 5 -48 10 -48 6 0 10 18 10 39 0 24 5 41 14 44 20 8
26 -2 26 -45 0 -21 5 -38 11 -38 6 0 9 19 7 48 l-3 47 -37 0 -38 1 0 -48z"/>
<path d="M1640 660 c0 -27 5 -50 10 -50 6 0 10 23 10 50 0 28 -4 50 -10 50 -5
0 -10 -22 -10 -50z"/>
<path d="M1698 664 c11 -27 24 -50 29 -51 6 -2 19 19 31 47 11 27 17 50 12 50
-6 0 -17 -17 -26 -37 l-16 -38 -12 34 c-7 19 -18 37 -24 39 -8 2 -6 -13 6 -44z"/>
<path d="M1802 698 c-7 -7 -12 -24 -12 -38 0 -14 5 -31 12 -38 15 -15 55 -16
64 -1 3 6 -1 10 -12 9 -34 -4 -44 0 -44 15 0 10 11 15 35 15 38 0 44 10 19 34
-18 19 -45 21 -62 4z m48 -13 c11 -13 8 -15 -14 -15 -25 0 -33 10 -19 23 10
11 19 8 33 -8z"/>
<path d="M1900 658 c0 -27 5 -48 10 -48 6 0 10 15 10 34 0 24 7 38 23 49 22
16 22 16 -10 14 -32 -2 -33 -3 -33 -49z"/>
<path d="M1977 703 c-15 -14 -6 -40 19 -51 28 -14 23 -36 -7 -27 -11 4 -19 2
-19 -4 0 -16 46 -13 60 4 10 12 10 18 0 30 -7 8 -19 15 -27 15 -8 0 -13 6 -10
13 2 6 11 11 21 9 9 -2 16 2 16 8 0 11 -43 14 -53 3z"/>
<path d="M2060 660 c0 -27 5 -50 10 -50 6 0 10 23 10 50 0 28 -4 50 -10 50 -5
0 -10 -22 -10 -50z"/>
<path d="M2230 699 c-12 -9 -11 -10 7 -6 27 6 54 -20 29 -28 -9 -3 -23 -7 -32
-10 -8 -3 -14 -13 -12 -22 2 -13 13 -18 41 -19 35 -1 37 1 37 28 0 58 -32 84
-70 57z m50 -58 c0 -12 -29 -23 -41 -15 -5 3 -7 10 -4 15 8 12 45 12 45 0z"/>
<path d="M1735 509 c-10 -15 3 -25 16 -12 7 7 7 13 1 17 -6 3 -14 1 -17 -5z"/>
<path d="M2110 450 c0 -40 4 -70 10 -70 6 0 10 30 10 70 0 40 -4 70 -10 70 -6
0 -10 -30 -10 -70z"/>
<path d="M1390 445 c0 -37 4 -65 10 -65 6 0 10 21 10 47 l0 46 36 -46 c51 -66
64 -62 64 18 0 37 -4 65 -10 65 -5 0 -10 -20 -10 -45 0 -25 -3 -45 -7 -45 -5
1 -23 21 -41 45 -18 25 -37 45 -42 45 -6 0 -10 -29 -10 -65z"/>
<path d="M1540 462 c0 -5 10 -8 21 -8 34 1 33 -18 -1 -31 -52 -20 -34 -57 23
-46 22 4 27 11 27 33 0 46 -10 60 -41 60 -16 0 -29 -4 -29 -8z m50 -52 c0 -12
-28 -25 -36 -17 -9 9 6 27 22 27 8 0 14 -5 14 -10z"/>
<path d="M1642 458 c-28 -28 1 -97 35 -84 8 3 19 6 24 6 5 0 9 4 9 9 0 4 -11
6 -24 4 -29 -6 -40 10 -32 44 6 21 11 24 31 19 14 -4 25 -2 25 4 0 14 -53 13
-68 -2z"/>
<path d="M1730 425 c0 -25 5 -45 10 -45 6 0 10 20 10 45 0 25 -4 45 -10 45 -5
0 -10 -20 -10 -45z"/>
<path d="M1787 463 c-16 -15 -7 -72 12 -83 32 -17 71 4 71 38 0 15 -5 33 -12
40 -13 13 -60 16 -71 5z m58 -38 c0 -23 -4 -30 -20 -30 -21 0 -31 25 -21 51
11 28 41 12 41 -21z"/>
<path d="M1900 426 c0 -55 17 -62 22 -8 2 25 8 37 18 37 10 0 16 -12 18 -37 2
-21 8 -38 13 -38 6 0 9 19 7 43 -3 41 -4 42 -40 45 l-38 3 0 -45z"/>
<path d="M2010 461 c0 -6 10 -10 21 -8 34 3 33 -17 -1 -30 -52 -20 -34 -57 24
-46 25 5 27 9 24 47 -3 38 -5 41 -35 44 -19 2 -33 -1 -33 -7z m50 -56 c0 -8
-9 -15 -20 -15 -22 0 -27 15 -7 23 21 9 27 7 27 -8z"/>
<path d="M1450 254 c0 -20 -4 -24 -19 -19 -36 11 -66 -46 -43 -82 4 -7 25 -12
45 -11 l37 1 0 69 c0 39 -4 68 -10 68 -5 0 -10 -12 -10 -26z m0 -63 c0 -28
-22 -47 -41 -35 -10 6 -12 47 -2 57 3 4 15 7 25 7 13 0 18 -8 18 -29z"/>
<path d="M1660 210 c0 -40 4 -70 10 -70 6 0 10 11 10 25 0 14 4 25 9 25 5 0
18 -11 29 -25 28 -35 48 -32 23 4 -18 25 -19 30 -6 41 35 29 6 70 -49 70 -25
0 -26 -2 -26 -70z m65 25 c0 -13 -8 -21 -22 -23 -19 -3 -23 1 -23 23 0 22 4
26 23 23 14 -2 22 -10 22 -23z"/>
<path d="M2150 270 c0 -5 5 -10 10 -10 6 0 10 5 10 10 0 6 -4 10 -10 10 -5 0
-10 -4 -10 -10z"/>
<path d="M1505 220 c-27 -30 -10 -74 29 -78 16 -2 34 2 40 8 8 9 6 11 -12 5
-24 -7 -56 11 -46 26 3 5 18 9 35 9 34 0 40 24 10 40 -28 14 -35 13 -56 -10z
m55 -10 c0 -5 -12 -10 -26 -10 -14 0 -23 4 -19 10 3 6 15 10 26 10 10 0 19 -4
19 -10z"/>
<path d="M1788 229 c-21 -12 -24 -59 -6 -77 7 -7 21 -12 33 -12 12 0 26 5 33
12 19 19 15 66 -7 78 -24 12 -31 12 -53 -1z m47 -44 c0 -23 -4 -30 -20 -30
-21 0 -31 25 -21 51 11 28 41 12 41 -21z"/>
<path d="M1889 224 c-12 -14 -10 -19 14 -38 34 -27 35 -40 2 -32 -15 4 -25 2
-25 -4 0 -7 14 -10 32 -8 42 4 50 33 14 49 -34 16 -33 29 2 29 21 0 24 2 12
10 -22 14 -36 12 -51 -6z"/>
<path d="M1980 230 c-15 -10 -13 -11 22 -14 26 -2 23 -20 -4 -26 -14 -4 -24
-15 -26 -28 -3 -20 1 -22 37 -20 39 1 41 3 41 34 0 50 -35 77 -70 54z m48 -62
c-7 -19 -38 -22 -38 -4 0 10 9 16 21 16 12 0 19 -5 17 -12z"/>
<path d="M2074 231 c-9 -9 -3 -91 6 -91 6 0 10 13 10 30 0 19 7 34 20 42 11 7
20 16 20 19 0 7 -49 7 -56 0z"/>
<path d="M2150 190 c0 -27 5 -50 10 -50 6 0 10 23 10 50 0 28 -4 50 -10 50 -5
0 -10 -22 -10 -50z"/>
<path d="M2210 220 c-23 -23 -24 -33 -10 -61 12 -22 59 -26 78 -7 17 17 15 54
-4 72 -21 21 -40 20 -64 -4z m58 -26 c2 -11 -4 -27 -13 -34 -22 -19 -50 9 -40
39 9 29 49 25 53 -5z"/>
</g>
</svg>
