<?xml version="1.0" standalone="no"?>
<!DOCTYPE svg PUBLIC "-//W3C//DTD SVG 20010904//EN"
 "http://www.w3.org/TR/2001/REC-SVG-20010904/DTD/svg10.dtd">
<svg version="1.0" xmlns="http://www.w3.org/2000/svg"
 width="180.000000pt" height="177.000000pt" viewBox="0 0 180.000000 177.000000"
 preserveAspectRatio="xMidYMid meet">

<g transform="translate(0.000000,177.000000) scale(0.100000,-0.100000)"
fill="#000000" stroke="none">
<path d="M30 1500 l0 -270 585 0 585 0 0 -45 0 -46 -270 3 -270 3 0 -252 0
-253 565 0 565 0 0 565 0 565 -880 0 -880 0 0 -270z"/>
<path d="M30 583 l0 -563 275 0 274 0 1 560 0 559 -275 3 -275 3 0 -562z"/>
<path d="M660 288 l0 -273 565 3 565 2 0 270 0 270 -565 0 -565 0 0 -272z"/>
</g>
</svg>
