<?xml version="1.0" standalone="no"?>
<!DOCTYPE svg PUBLIC "-//W3C//DTD SVG 20010904//EN"
 "http://www.w3.org/TR/2001/REC-SVG-20010904/DTD/svg10.dtd">
<svg version="1.0" xmlns="http://www.w3.org/2000/svg"
 width="225.000000pt" height="225.000000pt" viewBox="0 0 225.000000 225.000000"
 preserveAspectRatio="xMidYMid meet">

<g transform="translate(0.000000,225.000000) scale(0.100000,-0.100000)"
fill="#000000" stroke="none">
<path d="M1165 1976 c-330 -120 -479 -168 -698 -227 l-278 -74 6 -27 c6 -24 3
-28 -35 -39 -22 -7 -39 -17 -37 -23 2 -6 41 -113 87 -238 74 -202 85 -226 100
-218 13 7 20 5 24 -6 10 -27 7 -44 -9 -44 -8 0 -15 -2 -15 -4 0 -2 33 -95 74
-207 41 -112 102 -309 136 -436 60 -221 64 -232 85 -227 18 4 23 -1 34 -35 6
-23 15 -41 19 -41 7 0 454 161 460 165 2 2 -70 202 -159 446 -89 244 -166 460
-171 479 -6 19 -11 36 -12 37 -1 2 -70 -15 -152 -37 -207 -56 -191 -52 -174
-42 8 5 192 74 408 153 401 145 411 148 412 103 0 -9 -328 -134 -355 -134 -5
-1 -26 -8 -46 -18 l-36 -17 74 -205 c41 -113 78 -209 83 -214 6 -6 103 25 242
76 141 52 321 108 456 144 201 52 222 60 222 79 0 11 5 26 10 31 8 8 -8 63
-50 180 -34 93 -94 291 -134 439 -72 265 -74 270 -98 267 -20 -2 -28 4 -39 32
l-14 35 -420 -153z m410 76 c-7 -8 -388 -112 -393 -108 -1 2 84 35 190 73 160
59 194 68 201 56 5 -8 6 -18 2 -21z m-1351 -514 c8 -29 29 -109 47 -177 18
-68 38 -125 44 -127 6 -3 130 27 274 66 145 39 265 69 267 67 2 -2 -118 -48
-267 -102 -158 -57 -274 -94 -279 -89 -5 5 -40 97 -79 203 -71 194 -73 210
-34 211 6 0 18 -24 27 -52z m1096 -115 c0 -6 -4 -14 -8 -17 -5 -3 -9 0 -9 7 0
7 -3 28 -6 47 l-7 35 15 -30 c8 -16 14 -35 15 -42z m-321 -882 c45 -123 80
-225 79 -226 -2 -1 -92 -35 -202 -75 -201 -73 -215 -75 -216 -33 0 13 16 19
205 69 77 20 145 40 151 43 8 4 -7 74 -47 221 -84 309 -82 309 30 1z"/>
<path d="M1510 966 c-228 -84 -437 -158 -463 -165 -27 -8 -46 -19 -44 -25 3
-6 28 -99 56 -206 29 -107 54 -203 57 -212 3 -11 11 -15 21 -11 9 4 21 -1 29
-12 13 -17 27 -13 251 67 131 48 329 110 440 139 178 47 202 56 197 72 -4 13
3 21 30 32 20 9 36 18 36 21 0 4 -37 107 -81 230 -62 168 -86 224 -98 223 -9
0 -203 -69 -431 -153z m438 87 c5 -16 38 -104 72 -198 57 -157 60 -170 44
-182 -10 -7 -19 -11 -22 -9 -2 2 -26 87 -53 187 -27 101 -51 184 -52 186 -2 2
-352 -92 -420 -113 -12 -3 -19 -3 -16 0 10 10 401 154 421 155 9 1 20 -11 26
-26z"/>
<path d="M1520 376 c0 -2 7 -7 16 -10 8 -3 12 -2 9 4 -6 10 -25 14 -25 6z"/>
<path d="M1501 359 c-1 -25 27 -45 42 -30 9 10 8 11 -5 6 -13 -5 -21 0 -27 16
-6 16 -10 18 -10 8z"/>
<path d="M1457 353 c-2 -5 -7 -21 -11 -38 -5 -22 -4 -26 4 -15 5 8 10 23 10
32 0 9 8 19 18 21 15 4 15 5 0 6 -9 0 -19 -2 -21 -6z"/>
<path d="M1422 320 c-7 -11 -8 -20 -3 -20 9 0 24 30 18 36 -1 2 -8 -6 -15 -16z"/>
<path d="M1343 304 c-3 -8 2 -22 11 -30 9 -8 11 -9 6 -2 -15 18 -12 36 8 41
16 4 16 5 -1 6 -10 0 -20 -6 -24 -15z"/>
<path d="M1475 310 c-3 -6 1 -7 9 -4 18 7 21 14 7 14 -6 0 -13 -4 -16 -10z"/>
<path d="M1300 292 c0 -16 28 -47 36 -39 4 4 2 7 -5 7 -7 0 -9 5 -6 10 3 6 1
10 -5 10 -6 0 -8 5 -5 10 3 6 1 10 -4 10 -6 0 -11 -4 -11 -8z"/>
<path d="M1186 251 c-3 -5 2 -8 12 -7 9 0 17 -6 17 -14 0 -9 -8 -14 -19 -13
-14 1 -15 -2 -6 -10 9 -9 16 -6 31 12 10 13 19 28 19 35 0 7 -4 6 -9 -3 -6 -9
-11 -10 -15 -2 -9 13 -23 14 -30 2z"/>
<path d="M1140 228 c0 -7 4 -19 9 -26 7 -11 10 -10 15 3 3 9 4 21 0 26 -8 13
-24 11 -24 -3z"/>
</g>
</svg>
